<svg width="100" height="100" viewBox="0 0 100 100" fill="none" xmlns="http://www.w3.org/2000/svg">
<path fill-rule="evenodd" clip-rule="evenodd" d="M47.2918 1.67187C48.8468 0.799318 50.7614 0.799318 52.3141 1.67187C59.9976 5.98425 83.1191 18.9649 90.8049 23.2773C92.3599 24.1475 93.3172 25.7598 93.3172 27.5049C93.3172 36.1297 93.3172 62.0887 93.3172 70.7134C93.3172 72.4585 92.3599 74.0708 90.8049 74.9434C83.1214 79.2557 59.9999 92.2364 52.3141 96.5488C50.7591 97.4213 48.8445 97.4213 47.2918 96.5488C39.6083 92.2364 16.4868 79.2557 8.80104 74.9434C7.2483 74.0708 6.29102 72.4608 6.29102 70.7157C6.29102 62.091 6.29102 36.132 6.29102 27.5072C6.29102 25.7621 7.2483 24.1498 8.80333 23.2773C16.4845 18.9649 39.6106 5.98425 47.2918 1.67187Z" fill="url(#paint0_linear_127_151)"/>
<path fill-rule="evenodd" clip-rule="evenodd" d="M49.7735 100C47.2887 100 44.8016 99.4229 42.5251 98.2663C37.441 95.6853 30.8041 91.6272 24.3847 87.7018C19.8663 84.9399 15.5997 82.3291 12.2537 80.4718C7.16272 77.6411 4 72.2707 4 66.4514V32.2249C4 26.2934 7.24516 20.8771 12.4713 18.0877C21.0205 13.5326 34.7248 6.101 41.964 2.03367C46.7963 -0.677888 52.8034 -0.677888 57.6379 2.03367C65.8275 6.63002 81.3846 15.9212 90.2773 21.5298C93.6141 23.6299 95.6065 27.2461 95.6065 31.2058V67.4316C95.6065 72.928 93.6393 76.7022 89.7598 78.6419C87.5978 79.858 83.7412 82.2512 79.2754 85.0246C72.3316 89.3347 63.6885 94.7006 57.3723 98.09C55.0019 99.361 52.3866 100 49.7735 100ZM44.2061 6.02771C36.9417 10.1088 23.1962 17.5656 14.6264 22.1321C10.898 24.12 8.58033 27.9858 8.58033 32.2249V66.4514C8.58033 70.6058 10.8407 74.4441 14.4798 76.4663C17.9105 78.3717 22.216 81.0031 26.7757 83.7925C33.1194 87.6698 39.6785 91.6821 44.6 94.1807C47.9391 95.8731 51.9011 95.8227 55.2058 94.0524C61.3961 90.7294 69.9704 85.4071 76.8615 81.129C81.3732 78.3282 85.2687 75.9098 87.6162 74.5929C90.6483 73.0745 91.0262 69.9714 91.0262 67.4316V31.2058C91.0262 28.8309 89.833 26.6644 87.8383 25.4071C78.9937 19.8305 63.5328 10.5966 55.3981 6.03C51.8942 4.06504 47.7101 4.06504 44.2061 6.02771Z" fill="#343434"/>
<path fill-rule="evenodd" clip-rule="evenodd" d="M47.4608 89.5408L47.3302 58.7656C47.305 52.8249 50.5662 47.3583 55.8061 44.5574L83.311 29.8638C87.8867 27.4179 93.4198 30.734 93.4198 35.9235V69.6576C93.4198 72.0417 92.1831 74.2563 90.154 75.5067L57.936 95.3579C53.3694 98.1748 47.4837 94.9044 47.4608 89.5408Z" fill="#343434"/>
<path fill-rule="evenodd" clip-rule="evenodd" d="M60.7937 54.3182C61.0754 54.1739 61.309 54.3502 61.3136 54.7212L61.3434 57.7443C62.6075 57.2427 63.7068 57.1076 64.703 57.3389C64.9206 57.3939 65.0145 57.6893 64.9275 58.0397L64.261 60.7169C64.2061 60.9207 64.0962 61.1245 63.9587 61.2505C63.8992 61.3078 63.8397 61.3513 63.7824 61.381C63.6908 61.4268 63.6038 61.4406 63.5213 61.4246C63.0656 61.3215 61.9846 61.0856 60.2853 61.9467C58.5036 62.8513 57.8784 64.3995 57.8898 65.5491C57.9058 66.9255 58.6112 67.3423 61.0434 67.3858C64.2862 67.4385 65.6855 68.8584 65.7199 72.1196C65.7565 75.3304 64.0412 78.7725 61.4235 80.8818L61.4808 83.8773C61.4831 84.2369 61.2518 84.6514 60.9655 84.7934L59.1906 85.8125C58.9089 85.9568 58.6753 85.7804 58.6708 85.4186L58.641 82.4734C57.1203 83.1055 55.5859 83.2567 54.6034 82.8628C54.4156 82.7895 54.3355 82.5147 54.411 82.2032L55.0523 79.4985C55.1027 79.2878 55.2149 79.0726 55.3683 78.9351C55.421 78.8825 55.4783 78.8435 55.5332 78.8138C55.634 78.7634 55.7325 78.7519 55.8172 78.784C56.8753 79.139 58.2288 78.9718 59.5319 78.3122C61.1854 77.4763 62.2938 75.7885 62.2755 74.1121C62.2594 72.5914 61.4373 71.9616 59.4334 71.9456C56.8844 71.9501 54.5072 71.4509 54.4683 67.6973C54.4362 64.6056 56.0439 61.3925 58.5883 59.3588L58.5585 56.3381C58.5562 55.9671 58.783 55.5594 59.0738 55.4106L60.7937 54.3182Z" fill="url(#paint1_linear_127_151)"/>
<path fill-rule="evenodd" clip-rule="evenodd" d="M80.0933 73.9746L71.6106 78.9786C71.3609 79.1183 71.0518 78.9351 71.0518 78.6511V75.7838C71.0518 75.5251 71.1915 75.2869 71.4182 75.1586L79.9009 70.1546C80.1552 70.0149 80.4643 70.1981 80.4643 70.4867V73.3448C80.4643 73.6082 80.3223 73.8464 80.0933 73.9746Z" fill="#21A366"/>
<defs>
<linearGradient id="paint0_linear_127_151" x1="76.7204" y1="2.48946" x2="20.6526" y2="99.6038" gradientUnits="userSpaceOnUse">
<stop stop-color="#F9F9F9"/>
<stop offset="0.26" stop-color="#F0F1F2"/>
<stop offset="0.678" stop-color="#D9DCDF"/>
<stop offset="1" stop-color="#C2C8CC"/>
</linearGradient>
<linearGradient id="paint1_linear_127_151" x1="68.7681" y1="54.9503" x2="48.5047" y2="90.0493" gradientUnits="userSpaceOnUse">
<stop stop-color="#F9F9F9"/>
<stop offset="0.26" stop-color="#F0F1F2"/>
<stop offset="0.678" stop-color="#D9DCDF"/>
<stop offset="1" stop-color="#C2C8CC"/>
</linearGradient>
</defs>
</svg>
