<svg width="100" height="100" viewBox="0 0 100 100" fill="none" xmlns="http://www.w3.org/2000/svg">
<g clip-path="url(#clip0_127_163)">
<path d="M97.8947 45L55 2.10526C53.6842 0.789474 51.8421 0 50 0C48.1579 0 46.3158 0.789474 45 2.10526L35.7895 11.3158L46.5789 22.1053C47.6316 21.5789 48.6842 21.3158 50 21.3158C54.4737 21.3158 57.8947 24.7368 57.8947 29.2105C57.8947 30.5263 57.6316 31.5789 57.1053 32.6316L67.6316 43.1579C68.6842 42.6316 69.7368 42.3684 71.0526 42.3684C75.5263 42.3684 78.9474 45.7895 78.9474 50.2632C78.9474 54.7368 75.5263 58.1579 71.0526 58.1579C66.5789 58.1579 63.1579 54.7368 63.1579 50.2632C63.1579 48.9474 63.4211 47.8947 63.9474 46.8421L53.4211 36.3158C53.1579 36.3158 52.8947 36.5789 52.6316 36.5789V63.9474C55.7895 65 57.8947 67.8947 57.8947 71.3158C57.8947 75.7895 54.4737 79.2105 50 79.2105C45.5263 79.2105 42.1053 75.7895 42.1053 71.3158C42.1053 67.8947 44.2105 65 47.3684 63.9474V36.3158C44.2105 35.2632 42.1053 32.3684 42.1053 28.9474C42.1053 27.6316 42.3684 26.5789 42.8947 25.5263L32.1053 14.7368L2.10526 45C0.789474 46.3158 0 48.1579 0 50C0 51.8421 0.789474 53.6842 2.10526 55L45 97.8947C46.3158 99.2105 48.1579 100 50 100C51.8421 100 53.6842 99.2105 55 97.8947L97.8947 55C99.2105 53.6842 100 51.8421 100 50C100 48.1579 99.2105 46.3158 97.8947 45Z" fill="#F4511E"/>
</g>
<defs>
<clipPath id="clip0_127_163">
<rect width="100" height="100" fill="white"/>
</clipPath>
</defs>
</svg>
