<svg width="100" height="100" viewBox="0 0 100 100" fill="none" xmlns="http://www.w3.org/2000/svg">
<g clip-path="url(#clip0_127_159)">
<circle cx="50" cy="50" r="50" fill="#D9D9D9"/>
<path fill-rule="evenodd" clip-rule="evenodd" d="M50 0C22.3796 0 0 22.3796 0 50C0 72.0866 14.3229 90.8366 34.196 97.4447C36.7025 97.9004 37.6139 96.3704 37.6139 95.0358C37.6139 93.8477 37.5651 90.7064 37.5488 86.5397C23.6328 89.5508 20.7031 79.834 20.7031 79.834C18.4245 74.056 15.153 72.5098 15.153 72.5098C10.612 69.4173 15.4948 69.4824 15.4948 69.4824C20.5078 69.8405 23.1445 74.6256 23.1445 74.6256C27.6042 82.2754 34.847 80.0618 37.6953 78.7923C38.151 75.5534 39.4531 73.3561 40.8691 72.1029C29.7689 70.8496 18.099 66.5527 18.099 47.3958C18.099 41.9271 20.0521 37.4674 23.2422 33.9681C22.7376 32.7148 21.0124 27.6204 23.7305 20.7357C23.7305 20.7357 27.9297 19.401 37.4837 25.8626C41.4714 24.7559 45.752 24.2025 50 24.1862C54.248 24.2025 58.5286 24.7559 62.5163 25.8626C72.0703 19.401 76.2533 20.7357 76.2533 20.7357C78.9876 27.6204 77.2786 32.7148 76.7578 33.9681C79.9642 37.4674 81.8848 41.9271 81.8848 47.3958C81.8848 66.6016 70.1986 70.8171 59.0658 72.0703C60.8561 73.6003 62.4512 76.6602 62.4512 81.3151C62.4512 88.0046 62.4023 93.3919 62.4023 95.0358C62.4023 96.3704 63.2975 97.9329 65.8366 97.4447C85.6934 90.8203 100 72.0866 100 50C100 22.3796 77.6204 0 50 0Z" fill="black"/>
</g>
<defs>
<clipPath id="clip0_127_159">
<rect width="100" height="100" fill="white"/>
</clipPath>
</defs>
</svg>
