<svg width="100" height="100" viewBox="0 0 100 100" fill="none" xmlns="http://www.w3.org/2000/svg">
<path d="M77.2345 93.9024L69.6568 86.3247L64.6058 91.3757L72.1835 98.9534C73.579 100.349 75.8414 100.349 77.2345 98.9534C78.6276 97.5579 78.63 95.2979 77.2345 93.9024ZM84.3788 51.0366L76.8011 43.4589L71.7501 48.5099L79.3278 56.0876C80.7233 57.4831 82.9857 57.4831 84.3788 56.0876C85.7719 54.6921 85.7743 52.4321 84.3788 51.0366ZM22.7854 93.9024L30.3631 86.3247L35.4141 91.3757L27.8364 98.9534C26.4409 100.349 24.1785 100.349 22.7854 98.9534C21.3923 97.5579 21.3899 95.2979 22.7854 93.9024ZM15.0457 51.0366L22.6235 43.4589L27.6745 48.5099L20.0968 56.0876C18.7012 57.4831 16.4389 57.4831 15.0457 56.0876C13.6526 54.6921 13.6502 52.4321 15.0457 51.0366Z" fill="#FFCC80"/>
<path d="M83.0756 11.9071C83.0756 7.30381 80.3394 4.76282 75.3812 4.76282C70.4231 4.76282 66.4056 10.876 66.4056 15.4793C66.4056 17.8607 70.9851 19.0514 73.5499 19.0514C78.508 19.0514 83.0756 16.5104 83.0756 11.9071ZM16.3955 11.9071C16.3955 7.30381 19.1318 4.76282 24.0899 4.76282C29.0481 4.76282 33.0655 10.876 33.0655 15.4793C33.0655 17.8607 28.486 19.0514 25.9212 19.0514C20.9631 19.0514 16.3955 16.5104 16.3955 11.9071Z" fill="#4DD0E1"/>
<path d="M75.9321 9.52576C75.3005 9.52576 74.6948 9.77666 74.2482 10.2233C73.8016 10.6699 73.5507 11.2756 73.5507 11.9072C73.5507 12.5388 73.8016 13.1445 74.2482 13.5911C74.6948 14.0377 75.3005 14.2886 75.9321 14.2886C76.5637 14.2886 77.1695 14.0377 77.6161 13.5911C78.0627 13.1445 78.3136 12.5388 78.3136 11.9072C78.3136 11.2756 78.0627 10.6699 77.6161 10.2233C77.1695 9.77666 76.5637 9.52576 75.9321 9.52576ZM23.5406 9.52576C22.909 9.52576 22.3033 9.77666 21.8567 10.2233C21.4101 10.6699 21.1592 11.2756 21.1592 11.9072C21.1592 12.5388 21.4101 13.1445 21.8567 13.5911C22.3033 14.0377 22.909 14.2886 23.5406 14.2886C24.1722 14.2886 24.7779 14.0377 25.2245 13.5911C25.6711 13.1445 25.922 12.5388 25.922 11.9072C25.922 11.2756 25.6711 10.6699 25.2245 10.2233C24.7779 9.77666 24.1722 9.52576 23.5406 9.52576Z" fill="#424242"/>
<path d="M80.6946 73.8244C80.6946 85.1934 73.0288 97.6388 48.9977 97.6388C29.6557 97.6388 18.7773 85.1934 18.7773 73.8244C18.7773 61.9173 21.1588 59.9978 21.1588 50.0101C21.1588 38.8459 21.1588 33.3401 21.1588 26.1958C21.1588 14.8268 28.4841 0 48.9977 0C69.5114 0 78.3132 9.5043 78.3132 23.8143C78.3132 30.9586 77.7488 36.8003 78.3132 47.6287C78.7561 56.1113 80.6946 66.6801 80.6946 73.8244Z" fill="#4DD0E1"/>
<path d="M61.6438 7.14429C59.1174 7.14429 56.6945 8.14789 54.9081 9.93431C53.1216 11.7207 52.118 14.1436 52.118 16.67C52.118 19.1964 53.1216 21.6193 54.9081 23.4057C56.6945 25.1922 59.1174 26.1958 61.6438 26.1958C64.1702 26.1958 66.5931 25.1922 68.3795 23.4057C70.1659 21.6193 71.1695 19.1964 71.1695 16.67C71.1695 14.1436 70.1659 11.7207 68.3795 9.93431C66.5931 8.14789 64.1702 7.14429 61.6438 7.14429ZM37.8294 7.14429C35.3031 7.14429 32.8802 8.14789 31.0937 9.93431C29.3073 11.7207 28.3037 14.1436 28.3037 16.67C28.3037 19.1964 29.3073 21.6193 31.0937 23.4057C32.8802 25.1922 35.3031 26.1958 37.8294 26.1958C40.3558 26.1958 42.7787 25.1922 44.5652 23.4057C46.3516 21.6193 47.3552 19.1964 47.3552 16.67C47.3552 14.1436 46.3516 11.7207 44.5652 9.93431C42.7787 8.14789 40.3558 7.14429 37.8294 7.14429Z" fill="#F5F5F5"/>
<path d="M49.7355 40.4843C49.7355 41.7988 50.8024 42.8657 52.117 42.8657C53.4315 42.8657 54.4984 41.7988 54.4984 40.4843V33.34H49.7355V40.4843ZM44.9727 40.4843C44.9727 41.7988 46.0395 42.8657 47.3541 42.8657C48.6686 42.8657 49.7355 41.7988 49.7355 40.4843V33.34H44.9727V40.4843Z" fill="#EEEEEE"/>
<path d="M55.6903 35.7214C54.7091 35.7214 54.1352 35.519 53.2826 35.2332C50.9607 34.4521 48.4697 34.4569 46.1479 35.238C45.3024 35.5214 44.7595 35.7214 43.7831 35.7214C40.6063 35.7214 40.2109 33.34 40.2109 32.1493C40.2109 28.5771 43.7831 26.1957 47.3552 26.1957C49.3437 26.1957 50.1296 26.1957 52.1181 26.1957C55.6903 26.1957 59.2624 28.5771 59.2624 32.1493C59.2624 33.34 58.8671 35.7214 55.6903 35.7214Z" fill="#FFCC80"/>
<path d="M56.8794 14.2886C56.2478 14.2886 55.642 14.5395 55.1954 14.9861C54.7488 15.4327 54.4979 16.0384 54.4979 16.67C54.4979 17.3016 54.7488 17.9073 55.1954 18.3539C55.642 18.8005 56.2478 19.0514 56.8794 19.0514C57.511 19.0514 58.1167 18.8005 58.5633 18.3539C59.0099 17.9073 59.2608 17.3016 59.2608 16.67C59.2608 16.0384 59.0099 15.4327 58.5633 14.9861C58.1167 14.5395 57.511 14.2886 56.8794 14.2886ZM33.065 14.2886C32.4334 14.2886 31.8277 14.5395 31.3811 14.9861C30.9345 15.4327 30.6836 16.0384 30.6836 16.67C30.6836 17.3016 30.9345 17.9073 31.3811 18.3539C31.8277 18.8005 32.4334 19.0514 33.065 19.0514C33.6966 19.0514 34.3024 18.8005 34.749 18.3539C35.1956 17.9073 35.4465 17.3016 35.4465 16.67C35.4465 16.0384 35.1956 15.4327 34.749 14.9861C34.3024 14.5395 33.6966 14.2886 33.065 14.2886ZM49.7351 23.8143C48.4719 23.8143 47.2604 24.0652 46.3672 24.5118C45.474 24.9584 44.9722 25.5641 44.9722 26.1957C44.9722 26.8273 45.474 27.4331 46.3672 27.8797C47.2604 28.3263 48.4719 28.5772 49.7351 28.5772C50.9983 28.5772 52.2097 28.3263 53.1029 27.8797C53.9961 27.4331 54.4979 26.8273 54.4979 26.1957C54.4979 25.5641 53.9961 24.9584 53.1029 24.5118C52.2097 24.0652 50.9983 23.8143 49.7351 23.8143Z" fill="#424242"/>
</svg>
