<svg width="100" height="100" viewBox="0 0 100 100" fill="none" xmlns="http://www.w3.org/2000/svg">
<g clip-path="url(#clip0_125_83)">
<path d="M0 100V0H100V100H0Z" fill="#FFD600"/>
<path d="M65.3822 74.8528C67.3044 77.975 69.3933 80.9667 73.8183 80.9667C77.5349 80.9667 79.4849 79.1195 79.4849 76.5639C79.4849 73.5056 77.4683 72.4195 73.3794 70.6389L71.1377 69.6833C64.6683 66.9389 60.3655 63.5 60.3655 56.2361C60.3655 49.5417 65.4905 44.4472 73.4988 44.4472C79.2016 44.4472 83.2988 46.4222 86.2544 51.5945L79.271 56.0583C77.7349 53.3139 76.0738 52.2333 73.4988 52.2333C70.871 52.2333 69.2072 53.8917 69.2072 56.0583C69.2072 58.7361 70.8738 59.8195 74.7211 61.4778L76.9627 62.4333C84.5877 65.6806 88.8877 68.9972 88.8877 76.4528C88.8877 84.4861 82.5433 88.8889 74.0266 88.8889C65.6961 88.8889 60.9655 84.7083 58.3322 79.5333L65.3822 74.8528ZM33.1988 75.0806C34.6044 77.5972 36.7405 79.5333 39.8127 79.5333C42.7516 79.5333 44.4433 78.3722 44.4433 73.8583V44.4445H53.7016V75.2806C53.7016 84.6333 48.2766 88.8889 40.3544 88.8889C33.1961 88.8889 28.0294 84.0389 25.9238 79.5333L33.1988 75.0806Z" fill="#000001"/>
</g>
<defs>
<clipPath id="clip0_125_83">
<rect width="100" height="100" fill="white"/>
</clipPath>
</defs>
</svg>
