<svg width="100" height="100" viewBox="0 0 100 100" fill="none" xmlns="http://www.w3.org/2000/svg">
<path d="M10.001 49.9996C10.001 74.8519 30.1483 94.9993 55.0006 94.9993C79.8529 94.9993 100 74.8519 100 49.9996H55.0006H10.001Z" fill="#D35230"/>
<path d="M55 5V49.9996H99.9996C99.9996 25.1473 79.8523 5 55 5Z" fill="#FF8F6B"/>
<path d="M55.0006 5C30.1483 5 10.001 25.1473 10.001 49.9996H55.0006V5Z" fill="#ED6C47"/>
<path opacity="0.05" d="M55.0006 31.7023C55.0006 26.6198 50.8807 22.4999 45.7982 22.4999H19.4359C13.5434 30.1098 10.001 39.6297 10.001 49.9997C10.001 62.7896 15.3634 74.307 23.9284 82.4994H45.7957C50.8807 82.4994 55.0006 78.3794 55.0006 73.297V31.7023Z" fill="black"/>
<path opacity="0.07" d="M45.5332 23.3324H18.8134C13.3009 30.8023 10.001 40.0048 10.001 49.9997C10.001 61.5421 14.3834 72.0345 21.5284 79.9995H45.5332C49.8432 79.9995 53.3356 76.507 53.3356 72.197V31.1348C53.3331 26.8274 49.8407 23.3324 45.5332 23.3324Z" fill="black"/>
<path opacity="0.09" d="M45.2657 24.1674H18.1909C13.046 31.4823 10.001 40.3772 10.001 49.9997C10.001 60.3696 13.5434 69.8895 19.4359 77.4994H45.2657C48.8007 77.4994 51.6656 74.6345 51.6656 71.0995V30.5673C51.6681 27.0323 48.8007 24.1674 45.2657 24.1674Z" fill="black"/>
<path d="M44.9996 74.9994H4.99996C2.23748 74.9994 0 72.7619 0 69.9994V29.9997C0 27.2372 2.23748 24.9998 4.99996 24.9998H44.9996C47.7621 24.9998 49.9996 27.2372 49.9996 29.9997V69.9994C49.9996 72.7619 47.7621 74.9994 44.9996 74.9994Z" fill="url(#paint0_linear_127_142)"/>
<path d="M26.6824 37.5297H15V62.5295H20.06V53.727H25.7499C30.4399 53.727 34.2424 49.9246 34.2424 45.2346V45.0896C34.2424 40.9146 30.8574 37.5297 26.6824 37.5297ZM28.9249 45.8946C28.9249 48.0421 27.1824 49.7846 25.0349 49.7846H20.06V41.4721H25.0349C27.1824 41.4721 28.9249 43.2146 28.9249 45.3621V45.8946Z" fill="white"/>
<defs>
<linearGradient id="paint0_linear_127_142" x1="1.46499" y1="26.4647" x2="46.9246" y2="71.9244" gradientUnits="userSpaceOnUse">
<stop stop-color="#CA4E2A"/>
<stop offset="1" stop-color="#B63016"/>
</linearGradient>
</defs>
</svg>
