<svg width="100" height="100" viewBox="0 0 100 100" fill="none" xmlns="http://www.w3.org/2000/svg">
<path d="M99.9998 27.4999H60V49.9998H99.9998V27.4999Z" fill="#21A366"/>
<path d="M99.9997 49.9999H20V89.9997C20 92.7622 22.2375 94.9997 25 94.9997H94.9997C97.7622 94.9997 99.9997 92.7622 99.9997 89.9997V49.9999Z" fill="#185C37"/>
<path d="M99.9998 49.9999H60V72.4998H99.9998V49.9999Z" fill="#107C42"/>
<path d="M59.9998 27.4999H20V49.9998H59.9998V27.4999Z" fill="#3FA071"/>
<path d="M94.9999 5H60V27.4999H99.9998V9.99998C99.9998 7.23749 97.7624 5 94.9999 5Z" fill="#33C481"/>
<path d="M25 5H59.9998V27.4999H20V9.99998C20 7.23749 22.2375 5 25 5Z" fill="#21A366"/>
<path opacity="0.05" d="M45.7974 22.5H20V82.4998H45.7974C50.8799 82.4998 54.9999 78.3798 54.9999 73.2973V31.7025C54.9999 26.62 50.8799 22.5 45.7974 22.5Z" fill="black"/>
<path opacity="0.07" d="M45.5324 79.9997H20V23.3324H45.5324C49.8424 23.3324 53.3349 26.8249 53.3349 31.1349V72.1972C53.3324 76.5072 49.8399 79.9997 45.5324 79.9997Z" fill="black"/>
<path opacity="0.09" d="M45.2649 77.4997H20V24.1674H45.2649C48.7999 24.1674 51.6649 27.0323 51.6649 30.5673V71.0997C51.6674 74.6347 48.7999 77.4997 45.2649 77.4997Z" fill="black"/>
<path d="M44.9998 74.9997H4.99998C2.23749 74.9997 0 72.7622 0 69.9997V29.9999C0 27.2374 2.23749 24.9999 4.99998 24.9999H44.9998C47.7623 24.9999 49.9998 27.2374 49.9998 29.9999V69.9997C49.9998 72.7622 47.7623 74.9997 44.9998 74.9997Z" fill="url(#paint0_linear_127_121)"/>
<path d="M14.5179 37.4999H20.4829L25.3229 46.8848L30.4379 37.4999H36.0103L28.3329 49.9998L36.1853 62.4998H30.3079L25.0329 52.6748L19.7804 62.4998H13.8154L21.7979 49.9548L14.5179 37.4999Z" fill="white"/>
<defs>
<linearGradient id="paint0_linear_127_121" x1="1.81249" y1="26.8124" x2="47.6373" y2="72.6372" gradientUnits="userSpaceOnUse">
<stop stop-color="#18884F"/>
<stop offset="1" stop-color="#0B6731"/>
</linearGradient>
</defs>
</svg>
