<svg width="100" height="100" viewBox="0 0 100 100" fill="none" xmlns="http://www.w3.org/2000/svg">
<g clip-path="url(#clip0_127_88)">
<path d="M51.2747 0.000192544C47.1826 0.0133504 44.3458 0.373876 40.9168 0.965979C30.7905 2.72913 28.9458 6.43175 28.9458 13.2554V23.6843H52.6299V28.9475H28.0458H16.5985C9.66168 28.9475 3.59065 32.2159 1.66697 40.0501C-0.506706 49.0421 -0.604074 54.6737 1.66697 64.0631C3.39065 71.0657 7.188 76.3157 14.1275 76.3157H23.6853V62.8842C23.6853 55.0789 30.7537 47.3684 38.8537 47.3684H57.8957C64.5352 47.3684 71.0536 42.4685 71.0536 35.8501V13.2554C71.0536 6.83701 66.4246 2.03703 59.9536 0.960715C60.1141 0.944926 55.3326 -0.0155969 51.2747 0.000192544ZM38.1589 10.5265C40.3195 10.5265 42.1063 12.308 42.1063 14.4791C42.1063 16.6712 40.3195 18.4212 38.1589 18.4212C35.9563 18.4212 34.2116 16.6738 34.2116 14.4791C34.2116 12.3159 35.9563 10.5265 38.1589 10.5265Z" fill="#0277BD"/>
<path d="M48.7252 99.9999C52.8173 99.9867 55.6541 99.6262 59.083 99.0341C69.2093 97.2709 71.054 93.5683 71.054 86.7446V76.3157H47.3699V71.0526H71.9567H83.404C90.3408 71.0526 96.4118 67.7842 98.3355 59.95C100.509 50.9579 100.607 45.3264 98.3355 35.9369C96.6092 28.9343 92.8119 23.6843 85.8724 23.6843H76.3145V37.1159C76.3145 44.9211 69.2461 52.6316 61.1462 52.6316H42.1041C35.4647 52.6316 28.9463 57.5316 28.9463 64.15V86.7446C28.9463 93.163 33.5752 97.963 40.0463 99.0393C39.8857 99.0551 44.6673 100.016 48.7252 99.9999ZM61.8435 89.4736C59.683 89.4736 57.8962 87.692 57.8962 85.521C57.8962 83.3289 59.683 81.5789 61.8435 81.5789C64.0462 81.5789 65.7909 83.3262 65.7909 85.521C65.7909 87.6841 64.0435 89.4736 61.8435 89.4736Z" fill="#FFC107"/>
</g>
<defs>
<clipPath id="clip0_127_88">
<rect width="100" height="100" fill="white"/>
</clipPath>
</defs>
</svg>
