<svg width="100" height="100" viewBox="0 0 100 100" fill="none" xmlns="http://www.w3.org/2000/svg">
<g clip-path="url(#clip0_125_79)">
<path d="M100 0H0V100H100V0Z" fill="#1976D2"/>
<path d="M59.6942 44.4445H22.8525V53.5111H36.0664V94.4445H46.5359V53.5111H59.6942V44.4445Z" fill="white"/>
<path d="M92.2057 55.7888C92.2057 55.7888 87.2418 52.4777 81.6307 52.4777C76.0196 52.4777 74.0001 55.1444 74.0001 57.9944C74.0001 65.3499 94.5029 64.6138 94.5029 79.4166C94.5029 102.219 63.2418 92.1055 63.2418 92.1055V81.1666C63.2418 81.1666 69.2196 85.6721 76.389 85.6721C83.5585 85.6721 83.2862 80.9833 83.2862 80.3388C83.2862 73.536 62.9668 73.536 62.9668 58.4555C62.9668 37.9527 92.5724 46.0416 92.5724 46.0416L92.2057 55.7888Z" fill="white"/>
</g>
<defs>
<clipPath id="clip0_125_79">
<rect width="100" height="100" fill="white"/>
</clipPath>
</defs>
</svg>
